<mxfile host="Electron" agent="Mozilla/5.0 (Windows NT 10.0; Win64; x64) AppleWebKit/537.36 (KHTML, like Gecko) draw.io/27.0.2 Chrome/134.0.6998.205 Electron/35.3.0 Safari/537.36" version="27.0.2">
  <diagram id="C5RBs43oDa-KdzZeNtuy" name="Page-1">
    <mxGraphModel dx="918" dy="557" grid="1" gridSize="10" guides="1" tooltips="1" connect="1" arrows="1" fold="1" page="1" pageScale="1" pageWidth="827" pageHeight="1169" math="0" shadow="0">
      <root>
        <mxCell id="WIyWlLk6GJQsqaUBKTNV-0" />
        <mxCell id="WIyWlLk6GJQsqaUBKTNV-1" parent="WIyWlLk6GJQsqaUBKTNV-0" />
        <mxCell id="wzIUrujgAZOx7lthdXXU-0" value="Usuario" style="shape=umlActor;verticalLabelPosition=bottom;verticalAlign=top;html=1;" vertex="1" parent="WIyWlLk6GJQsqaUBKTNV-1">
          <mxGeometry x="80" y="219" width="30" height="60" as="geometry" />
        </mxCell>
        <mxCell id="wzIUrujgAZOx7lthdXXU-1" value="Sistema" style="shape=umlActor;verticalLabelPosition=bottom;verticalAlign=top;html=1;" vertex="1" parent="WIyWlLk6GJQsqaUBKTNV-1">
          <mxGeometry x="690" y="350" width="30" height="60" as="geometry" />
        </mxCell>
        <mxCell id="wzIUrujgAZOx7lthdXXU-2" value="Buscar libro" style="ellipse;whiteSpace=wrap;html=1;fillColor=#dae8fc;strokeColor=#6c8ebf;" vertex="1" parent="WIyWlLk6GJQsqaUBKTNV-1">
          <mxGeometry x="330" y="149" width="140" height="70" as="geometry" />
        </mxCell>
        <mxCell id="wzIUrujgAZOx7lthdXXU-3" value="Registrar libro" style="ellipse;whiteSpace=wrap;html=1;fillColor=#dae8fc;strokeColor=#6c8ebf;" vertex="1" parent="WIyWlLk6GJQsqaUBKTNV-1">
          <mxGeometry x="330" y="240" width="140" height="70" as="geometry" />
        </mxCell>
        <mxCell id="wzIUrujgAZOx7lthdXXU-4" value="Ver historial" style="ellipse;whiteSpace=wrap;html=1;fillColor=#dae8fc;strokeColor=#6c8ebf;" vertex="1" parent="WIyWlLk6GJQsqaUBKTNV-1">
          <mxGeometry x="330" y="340" width="140" height="70" as="geometry" />
        </mxCell>
        <mxCell id="wzIUrujgAZOx7lthdXXU-5" value="Devolver libro" style="ellipse;whiteSpace=wrap;html=1;fillColor=#dae8fc;strokeColor=#6c8ebf;" vertex="1" parent="WIyWlLk6GJQsqaUBKTNV-1">
          <mxGeometry x="330" y="430" width="140" height="70" as="geometry" />
        </mxCell>
        <mxCell id="wzIUrujgAZOx7lthdXXU-11" value="" style="endArrow=none;html=1;rounded=0;exitX=0;exitY=0.5;exitDx=0;exitDy=0;" edge="1" parent="WIyWlLk6GJQsqaUBKTNV-1" source="wzIUrujgAZOx7lthdXXU-2">
          <mxGeometry width="50" height="50" relative="1" as="geometry">
            <mxPoint x="370" y="390" as="sourcePoint" />
            <mxPoint x="96" y="249" as="targetPoint" />
          </mxGeometry>
        </mxCell>
        <mxCell id="wzIUrujgAZOx7lthdXXU-12" value="" style="endArrow=none;html=1;rounded=0;exitX=0;exitY=0.5;exitDx=0;exitDy=0;entryX=0.5;entryY=0.5;entryDx=0;entryDy=0;entryPerimeter=0;" edge="1" parent="WIyWlLk6GJQsqaUBKTNV-1" source="wzIUrujgAZOx7lthdXXU-3" target="wzIUrujgAZOx7lthdXXU-0">
          <mxGeometry width="50" height="50" relative="1" as="geometry">
            <mxPoint x="270" y="255" as="sourcePoint" />
            <mxPoint x="150" y="259" as="targetPoint" />
          </mxGeometry>
        </mxCell>
        <mxCell id="wzIUrujgAZOx7lthdXXU-13" value="" style="endArrow=none;html=1;rounded=0;exitX=0;exitY=0.5;exitDx=0;exitDy=0;entryX=0.5;entryY=0.5;entryDx=0;entryDy=0;entryPerimeter=0;" edge="1" parent="WIyWlLk6GJQsqaUBKTNV-1" source="wzIUrujgAZOx7lthdXXU-4" target="wzIUrujgAZOx7lthdXXU-0">
          <mxGeometry width="50" height="50" relative="1" as="geometry">
            <mxPoint x="270" y="365" as="sourcePoint" />
            <mxPoint x="110" y="260" as="targetPoint" />
          </mxGeometry>
        </mxCell>
        <mxCell id="wzIUrujgAZOx7lthdXXU-14" value="" style="endArrow=none;html=1;rounded=0;exitX=0;exitY=0.5;exitDx=0;exitDy=0;entryX=0.5;entryY=0.5;entryDx=0;entryDy=0;entryPerimeter=0;" edge="1" parent="WIyWlLk6GJQsqaUBKTNV-1" source="wzIUrujgAZOx7lthdXXU-5" target="wzIUrujgAZOx7lthdXXU-0">
          <mxGeometry width="50" height="50" relative="1" as="geometry">
            <mxPoint x="250" y="600" as="sourcePoint" />
            <mxPoint x="140" y="260" as="targetPoint" />
          </mxGeometry>
        </mxCell>
        <mxCell id="wzIUrujgAZOx7lthdXXU-17" value="Sistema Biblioteca" style="text;align=center;fontStyle=1;verticalAlign=middle;spacingLeft=3;spacingRight=3;strokeColor=none;rotatable=0;points=[[0,0.5],[1,0.5]];portConstraint=eastwest;html=1;fontSize=29;" vertex="1" parent="WIyWlLk6GJQsqaUBKTNV-1">
          <mxGeometry x="249" y="60" width="330" height="26" as="geometry" />
        </mxCell>
        <mxCell id="wzIUrujgAZOx7lthdXXU-18" value="" style="endArrow=none;html=1;rounded=0;entryX=1;entryY=0.5;entryDx=0;entryDy=0;exitX=0.5;exitY=0.5;exitDx=0;exitDy=0;exitPerimeter=0;" edge="1" parent="WIyWlLk6GJQsqaUBKTNV-1" source="wzIUrujgAZOx7lthdXXU-1" target="wzIUrujgAZOx7lthdXXU-2">
          <mxGeometry width="50" height="50" relative="1" as="geometry">
            <mxPoint x="768" y="251" as="sourcePoint" />
            <mxPoint x="520" y="247" as="targetPoint" />
          </mxGeometry>
        </mxCell>
        <mxCell id="wzIUrujgAZOx7lthdXXU-19" value="" style="endArrow=none;html=1;rounded=0;entryX=1;entryY=0.5;entryDx=0;entryDy=0;exitX=0.5;exitY=0.5;exitDx=0;exitDy=0;exitPerimeter=0;" edge="1" parent="WIyWlLk6GJQsqaUBKTNV-1" source="wzIUrujgAZOx7lthdXXU-1" target="wzIUrujgAZOx7lthdXXU-3">
          <mxGeometry width="50" height="50" relative="1" as="geometry">
            <mxPoint x="680" y="343" as="sourcePoint" />
            <mxPoint x="494" y="254" as="targetPoint" />
          </mxGeometry>
        </mxCell>
        <mxCell id="wzIUrujgAZOx7lthdXXU-20" value="" style="endArrow=none;html=1;rounded=0;entryX=0.986;entryY=0.329;entryDx=0;entryDy=0;exitX=0.5;exitY=0.5;exitDx=0;exitDy=0;exitPerimeter=0;entryPerimeter=0;" edge="1" parent="WIyWlLk6GJQsqaUBKTNV-1" source="wzIUrujgAZOx7lthdXXU-1" target="wzIUrujgAZOx7lthdXXU-4">
          <mxGeometry width="50" height="50" relative="1" as="geometry">
            <mxPoint x="695" y="350" as="sourcePoint" />
            <mxPoint x="494" y="345" as="targetPoint" />
          </mxGeometry>
        </mxCell>
        <mxCell id="wzIUrujgAZOx7lthdXXU-21" value="" style="endArrow=none;html=1;rounded=0;entryX=1;entryY=0.5;entryDx=0;entryDy=0;exitX=0.5;exitY=0.5;exitDx=0;exitDy=0;exitPerimeter=0;" edge="1" parent="WIyWlLk6GJQsqaUBKTNV-1" source="wzIUrujgAZOx7lthdXXU-1" target="wzIUrujgAZOx7lthdXXU-5">
          <mxGeometry width="50" height="50" relative="1" as="geometry">
            <mxPoint x="695" y="350" as="sourcePoint" />
            <mxPoint x="492" y="433" as="targetPoint" />
          </mxGeometry>
        </mxCell>
        <mxCell id="wzIUrujgAZOx7lthdXXU-22" value="Reservar libro" style="ellipse;whiteSpace=wrap;html=1;fillColor=#f8cecc;strokeColor=#b85450;" vertex="1" parent="WIyWlLk6GJQsqaUBKTNV-1">
          <mxGeometry x="330" y="515" width="140" height="70" as="geometry" />
        </mxCell>
        <mxCell id="wzIUrujgAZOx7lthdXXU-25" value="Base_biblioteca" style="shape=datastore;whiteSpace=wrap;html=1;" vertex="1" parent="WIyWlLk6GJQsqaUBKTNV-1">
          <mxGeometry x="720" y="144" width="100" height="96" as="geometry" />
        </mxCell>
        <mxCell id="wzIUrujgAZOx7lthdXXU-26" value="" style="endArrow=none;dashed=1;html=1;dashPattern=1 3;strokeWidth=2;rounded=0;exitX=0.5;exitY=0.5;exitDx=0;exitDy=0;exitPerimeter=0;" edge="1" parent="WIyWlLk6GJQsqaUBKTNV-1" source="wzIUrujgAZOx7lthdXXU-1" target="wzIUrujgAZOx7lthdXXU-25">
          <mxGeometry width="50" height="50" relative="1" as="geometry">
            <mxPoint x="730" y="310" as="sourcePoint" />
            <mxPoint x="780" y="260" as="targetPoint" />
            <Array as="points">
              <mxPoint x="770" y="380" />
            </Array>
          </mxGeometry>
        </mxCell>
        <mxCell id="wzIUrujgAZOx7lthdXXU-27" value="" style="endArrow=none;html=1;rounded=0;exitX=0;exitY=0.5;exitDx=0;exitDy=0;" edge="1" parent="WIyWlLk6GJQsqaUBKTNV-1" source="wzIUrujgAZOx7lthdXXU-22">
          <mxGeometry width="50" height="50" relative="1" as="geometry">
            <mxPoint x="340" y="475" as="sourcePoint" />
            <mxPoint x="100" y="250" as="targetPoint" />
          </mxGeometry>
        </mxCell>
        <mxCell id="wzIUrujgAZOx7lthdXXU-28" value="" style="endArrow=none;html=1;rounded=0;entryX=1;entryY=0.5;entryDx=0;entryDy=0;" edge="1" parent="WIyWlLk6GJQsqaUBKTNV-1" target="wzIUrujgAZOx7lthdXXU-22">
          <mxGeometry width="50" height="50" relative="1" as="geometry">
            <mxPoint x="700" y="380" as="sourcePoint" />
            <mxPoint x="480" y="475" as="targetPoint" />
          </mxGeometry>
        </mxCell>
      </root>
    </mxGraphModel>
  </diagram>
</mxfile>
